<svg width="2119" height="1510" xmlns="http://www.w3.org/2000/svg" xmlns:xlink="http://www.w3.org/1999/xlink" xml:space="preserve" overflow="hidden"><defs><clipPath id="clip0"><rect x="980" y="1273" width="2119" height="1510"/></clipPath></defs><g clip-path="url(#clip0)" transform="translate(-980 -1273)"><rect x="981" y="1274" width="2116" height="1507" fill="#FFFFFF"/><g><path d="M1112.5 2469.58 3025.5 2469.58M1112.5 2264.57 3025.5 2264.57M1112.5 2059.57 3025.5 2059.57M1112.5 1853.56 3025.5 1853.56M1112.5 1648.55 3025.5 1648.55M1112.5 1443.5 3025.5 1443.5" stroke="#D9D9D9" stroke-width="3.4375" stroke-linejoin="round" stroke-miterlimit="10" fill="none"/></g><g><path d="M1303.54 1443.5 1303.54 2674.5M1494.55 1443.5 1494.55 2674.5M1686.56 1443.5 1686.56 2674.5M1877.56 1443.5 1877.56 2674.5M2068.57 1443.5 2068.57 2674.5M2260.57 1443.5 2260.57 2674.5M2451.58 1443.5 2451.58 2674.5M2643.59 1443.5 2643.59 2674.5M2834.59 1443.5 2834.59 2674.5M3025.5 1443.5 3025.5 2674.5" stroke="#D9D9D9" stroke-width="3.4375" stroke-linejoin="round" stroke-miterlimit="10" fill="none"/></g><g><path d="M0 0 0.000360892 1231" stroke="#BFBFBF" stroke-width="3.4375" stroke-linejoin="round" stroke-miterlimit="10" fill="none" fill-rule="evenodd" transform="matrix(1 0 0 -1 1112.5 2674.5)"/></g><g><path d="M1112.5 2674.5 3025.5 2674.5" stroke="#BFBFBF" stroke-width="3.4375" stroke-linejoin="round" stroke-miterlimit="10" fill="none" fill-rule="evenodd"/></g><g><path d="M1123.9 1648.09C1123.9 1654.17 1118.98 1659.09 1112.91 1659.09 1106.83 1659.09 1101.91 1654.17 1101.91 1648.09 1101.91 1642.02 1106.83 1637.09 1112.91 1637.09 1118.98 1637.09 1123.9 1642.02 1123.9 1648.09Z" stroke="#5B9BD5" stroke-width="3.4375" stroke-linejoin="round" stroke-miterlimit="10" fill="#5B9BD5"/><path d="M1505.91 2346.09C1505.91 2352.17 1500.98 2357.09 1494.91 2357.09 1488.83 2357.09 1483.91 2352.17 1483.91 2346.09 1483.91 2340.02 1488.83 2335.09 1494.91 2335.09 1500.98 2335.09 1505.91 2340.02 1505.91 2346.09Z" stroke="#5B9BD5" stroke-width="3.4375" stroke-linejoin="round" stroke-miterlimit="10" fill="#5B9BD5"/><path d="M1888.91 2500.09C1888.91 2506.17 1883.98 2511.09 1877.91 2511.09 1871.83 2511.09 1866.91 2506.17 1866.91 2500.09 1866.91 2494.02 1871.83 2489.09 1877.91 2489.09 1883.98 2489.09 1888.91 2494.02 1888.91 2500.09Z" stroke="#5B9BD5" stroke-width="3.4375" stroke-linejoin="round" stroke-miterlimit="10" fill="#5B9BD5"/><path d="M2271.91 2597.09C2271.91 2603.17 2266.98 2608.09 2260.91 2608.09 2254.83 2608.09 2249.91 2603.17 2249.91 2597.09 2249.91 2591.02 2254.83 2586.09 2260.91 2586.09 2266.98 2586.09 2271.91 2591.02 2271.91 2597.09Z" stroke="#5B9BD5" stroke-width="3.4375" stroke-linejoin="round" stroke-miterlimit="10" fill="#5B9BD5"/><path d="M2845.91 2646.09C2845.91 2652.17 2840.98 2657.09 2834.91 2657.09 2828.83 2657.09 2823.91 2652.17 2823.91 2646.09 2823.91 2640.02 2828.83 2635.09 2834.91 2635.09 2840.98 2635.09 2845.91 2640.02 2845.91 2646.09Z" stroke="#5B9BD5" stroke-width="3.4375" stroke-linejoin="round" stroke-miterlimit="10" fill="#5B9BD5"/></g><g><path d="M1112.5 1648.5 1115.54 1655.55 1118.54 1662.55 1121.54 1669.55 1124.54 1676.56 1127.54 1682.56 1130.54 1689.56 1133.54 1696.56 1136.54 1702.56 1140.54 1709.56 1143.54 1715.56 1146.54 1722.56 1149.54 1728.56 1152.54 1735.56 1155.54 1741.56 1158.54 1747.56 1161.54 1753.56 1164.54 1760.56 1167.54 1766.56 1170.54 1772.56 1174.54 1778.56 1177.54 1784.56 1180.54 1790.56 1183.54 1796.56 1186.54 1802.56 1189.54 1808.56 1192.54 1814.56 1195.54 1819.56 1198.54 1825.56 1201.54 1831.56 1205.54 1837.56 1208.54 1842.56 1211.54 1848.56 1214.54 1853.56 1217.54 1859.56 1220.54 1864.56 1223.54 1870.56 1226.54 1875.56 1229.54 1881.56 1232.54 1886.56 1236.54 1891.56 1239.54 1897.56 1242.54 1902.56 1245.54 1907.56 1248.54 1912.56 1251.54 1917.56 1254.54 1922.56 1257.54 1927.56 1260.54 1932.56 1263.54 1937.56 1267.54 1942.56 1270.54 1947.56 1273.54 1952.56 1276.54 1957.56 1279.54 1962.56 1282.54 1967.56 1285.54 1972.56 1288.54 1976.56 1291.54 1981.57 1294.54 1986.57 1297.54 1990.57 1301.54 1995.57 1304.54 1999.57 1307.54 2004.57 1310.54 2008.57 1313.54 2013.57 1316.54 2017.57 1319.54 2022.57 1322.54 2026.57 1325.54 2031.57 1328.54 2035.57 1332.54 2039.57 1335.54 2044.57 1338.54 2048.57 1341.54 2052.57 1344.54 2056.57 1347.54 2060.57 1350.54 2064.57 1353.54 2069.57 1356.54 2073.57 1359.54 2077.57 1363.54 2081.57 1366.55 2085.57 1369.55 2089.57 1372.55 2093.57 1375.55 2097.57 1378.55 2100.57 1381.55 2104.57 1384.55 2108.57 1387.55 2112.57 1390.55 2116.57 1394.55 2120.57 1397.55 2123.57 1400.55 2127.57 1403.55 2131.57 1406.55 2134.57 1409.55 2138.57 1412.55 2142.57 1415.55 2145.57 1418.55 2149.57 1421.55 2152.57 1424.55 2156.57 1428.55 2159.57 1431.55 2163.57 1434.55 2166.57 1437.55 2170.57 1440.55 2173.57 1443.55 2176.57 1446.55 2180.57 1449.55 2183.57 1452.55 2186.57 1455.55 2190.57 1459.55 2193.57 1462.55 2196.57 1465.55 2199.57 1468.55 2203.57 1471.55 2206.57 1474.55 2209.57 1477.55 2212.57 1480.55 2215.57 1483.55 2218.57 1486.55 2221.57 1490.55 2224.57 1493.55 2227.57 1496.55 2230.57 1499.55 2233.57 1502.55 2236.57 1505.55 2239.57 1508.55 2242.57 1511.55 2245.57 1514.55 2248.57 1517.55 2251.57 1521.55 2254.57 1524.55 2257.57 1527.55 2259.57 1530.55 2262.57 1533.55 2265.57 1536.55 2268.57 1539.55 2270.57 1542.55 2273.57 1545.55 2276.57 1548.55 2279.57 1551.55 2281.57 1555.55 2284.58 1558.55 2287.58 1561.55 2289.58 1564.55 2292.58 1567.55 2294.58 1570.55 2297.58 1573.55 2299.58 1576.55 2302.58 1579.55 2304.58 1582.55 2307.58 1586.55 2309.58 1589.55 2312.58 1592.55 2314.58 1595.55 2317.58 1598.55 2319.58 1601.55 2321.58 1604.55 2324.58 1607.55 2326.58 1610.55 2329.58 1613.55 2331.58 1617.55 2333.58 1620.55 2336.58 1623.55 2338.58 1626.55 2340.58 1629.55 2342.58 1632.55 2345.58 1635.55 2347.58 1638.55 2349.58 1641.55 2351.58 1644.55 2353.58 1648.55 2355.58 1651.55 2358.58 1654.55 2360.58 1657.55 2362.58 1660.55 2364.58 1663.55 2366.58 1666.55 2368.58 1669.55 2370.58 1672.56 2372.58 1675.56 2374.58 1678.56 2376.58 1682.56 2378.58 1685.56 2380.58 1688.56 2382.58 1691.56 2384.58 1694.56 2386.58 1697.56 2388.58 1700.56 2390.58 1703.56 2392.58 1706.56 2394.58 1709.56 2396.58 1713.56 2398.58 1716.56 2400.58 1719.56 2401.58 1722.56 2403.58 1725.56 2405.58 1728.56 2407.58 1731.56 2409.58 1734.56 2410.58 1737.56 2412.58 1740.56 2414.58 1744.56 2416.58 1747.56 2417.58 1750.56 2419.58 1753.56 2421.58 1756.56 2423.58 1759.56 2424.58 1762.56 2426.58 1765.56 2428.58 1768.56 2429.58 1771.56 2431.58 1775.56 2433.58 1778.56 2434.58 1781.56 2436.58 1784.56 2437.58 1787.56 2439.58 1790.56 2441.58 1793.56 2442.58 1796.56 2444.58 1799.56 2445.58 1802.56 2447.58 1805.56 2448.58 1809.56 2450.58 1812.56 2451.58 1815.56 2453.58 1818.56 2454.58 1821.56 2456.58 1824.56 2457.58 1827.56 2459.58 1830.56 2460.58 1833.56 2462.58 1836.56 2463.58 1840.56 2465.58 1843.56 2466.58 1846.56 2467.58 1849.56 2469.58 1852.56 2470.58 1855.56 2472.58 1858.56 2473.58 1861.56 2474.58 1864.56 2476.58 1867.56 2477.58 1871.56 2478.58 1874.56 2480.58 1877.56 2481.58 1880.56 2482.58 1883.56 2483.58 1886.56 2485.58 1889.56 2486.58 1892.56 2487.58 1895.56 2489.58 1898.56 2490.58 1902.56 2491.58 1905.56 2492.58 1908.56 2494.58 1911.56 2495.58 1914.56 2496.58 1917.56 2497.58 1920.56 2498.58 1923.56 2500.58 1926.56 2501.58 1929.56 2502.58 1932.56 2503.58 1936.56 2504.58 1939.56 2505.58 1942.56 2506.58 1945.56 2508.58 1948.56 2509.58 1951.56 2510.58 1954.56 2511.58 1957.56 2512.58 1960.56 2513.58 1963.56 2514.58 1967.56 2515.58 1970.56 2516.58 1973.56 2517.58 1976.56 2518.58 1979.57 2519.58 1982.57 2521.58 1985.57 2522.58 1988.57 2523.58 1991.57 2524.58 1994.57 2525.58 1998.57 2526.58 2001.57 2527.58 2004.57 2528.58 2007.57 2529.58 2010.57 2530.58 2013.57 2531.58 2016.57 2532.58 2019.57 2532.58 2022.57 2533.58 2025.57 2534.58 2029.57 2535.58 2032.57 2536.58 2035.57 2537.58 2038.57 2538.58 2041.57 2539.58 2044.57 2540.58 2047.57 2541.58 2050.57 2542.58 2053.57 2543.58 2056.57 2544.58 2060.57 2544.58 2063.57 2545.58 2066.57 2546.58 2069.57 2547.58 2072.57 2548.58 2075.57 2549.58 2078.57 2550.58 2081.57 2550.58 2084.57 2551.58 2087.57 2552.58 2090.57 2553.58 2094.57 2554.58 2097.57 2555.58 2100.57 2555.58 2103.57 2556.58 2106.57 2557.58 2109.57 2558.58 2112.57 2558.58 2115.57 2559.58 2118.57 2560.58 2121.57 2561.58 2125.57 2562.58 2128.57 2562.58 2131.57 2563.58 2134.57 2564.58 2137.57 2565.58 2140.57 2565.58 2143.57 2566.58 2146.57 2567.58 2149.57 2567.58 2152.57 2568.58 2156.57 2569.58 2159.57 2570.58 2162.57 2570.58 2165.57 2571.58 2168.57 2572.58 2171.57 2572.58 2174.57 2573.58 2177.57 2574.58 2180.57 2574.58 2183.57 2575.58 2187.57 2576.58 2190.57 2576.58 2193.57 2577.58 2196.57 2578.58 2199.57 2578.58 2202.57 2579.58 2205.57 2580.58 2208.57 2580.58 2211.57 2581.58 2214.57 2582.58 2217.57 2582.58 2221.57 2583.58 2224.57 2583.58 2227.57 2584.58 2230.57 2585.58 2233.57 2585.58 2236.57 2586.58 2239.57 2586.58 2242.57 2587.58 2245.57 2588.58 2248.57 2588.58 2252.57 2589.59 2255.57 2589.59 2258.57 2590.59 2261.57 2590.59 2264.57 2591.59 2267.57 2592.59 2270.57 2592.59 2273.57 2593.59 2276.57 2593.59 2279.57 2594.59 2283.58 2594.59 2286.58 2595.59 2289.58 2595.59 2292.58 2596.59 2295.58 2596.59 2298.58 2597.59 2301.58 2598.59 2304.58 2598.59 2307.58 2599.59 2310.58 2599.59 2314.58 2600.59 2317.58 2600.59 2320.58 2601.59 2323.58 2601.59 2326.58 2602.59 2329.58 2602.59 2332.58 2603.59 2335.58 2603.59 2338.58 2603.59 2341.58 2604.59 2344.58 2604.59 2348.58 2605.59 2351.58 2605.59 2354.58 2606.59 2357.58 2606.59 2360.58 2607.59 2363.58 2607.59 2366.58 2608.59 2369.58 2608.59 2372.58 2609.59 2375.58 2609.59 2379.58 2609.59 2382.58 2610.59 2385.58 2610.59 2388.58 2611.59 2391.58 2611.59 2394.58 2612.59 2397.58 2612.59 2400.58 2612.59 2403.58 2613.59 2406.58 2613.59 2410.58 2614.59 2413.58 2614.59 2416.58 2614.59 2419.58 2615.59 2422.58 2615.59 2425.58 2616.59 2428.58 2616.59 2431.58 2616.59 2434.58 2617.59 2437.58 2617.59 2441.58 2618.59 2444.58 2618.59 2447.58 2618.59 2450.58 2619.59 2453.58 2619.59 2456.58 2619.59 2459.58 2620.59 2462.58 2620.59 2465.58 2621.59 2468.58 2621.59 2471.58 2621.59 2475.58 2622.59 2478.58 2622.59 2481.58 2622.59 2484.58 2623.59 2487.58 2623.59 2490.58 2623.59 2493.58 2624.59 2496.58 2624.59 2499.58 2624.59 2502.58 2625.59 2506.58 2625.59 2509.58 2625.59 2512.58 2626.59 2515.58 2626.59 2518.58 2626.59 2521.58 2627.59 2524.58 2627.59 2527.58 2627.59 2530.58 2628.59 2533.58 2628.59 2537.58 2628.59 2540.58 2629.59 2543.58 2629.59 2546.58 2629.59 2549.58 2629.59 2552.58 2630.59 2555.58 2630.59 2558.58 2630.59 2561.58 2631.59 2564.58 2631.59 2568.58 2631.59 2571.58 2632.59 2574.58 2632.59 2577.58 2632.59 2580.58 2632.59 2583.58 2633.59 2586.58 2633.59 2589.58 2633.59 2592.59 2634.59 2595.59 2634.59 2598.59 2634.59 2602.59 2634.59 2605.59 2635.59 2608.59 2635.59 2611.59 2635.59 2614.59 2635.59 2617.59 2636.59 2620.59 2636.59 2623.59 2636.59 2626.59 2636.59 2629.59 2637.59 2633.59 2637.59 2636.59 2637.59 2639.59 2637.59 2642.59 2638.59 2645.59 2638.59 2648.59 2638.59 2651.59 2638.59 2654.59 2639.59 2657.59 2639.59 2660.59 2639.59 2664.59 2639.59 2667.59 2640.59 2670.59 2640.59 2673.59 2640.59 2676.59 2640.59 2679.59 2640.59 2682.59 2641.59 2685.59 2641.59 2688.59 2641.59 2691.59 2641.59 2695.59 2642.59 2698.59 2642.59 2701.59 2642.59 2704.59 2642.59 2707.59 2642.59 2710.59 2643.59 2713.59 2643.59 2716.59 2643.59 2719.59 2643.59 2722.59 2644.59 2725.59 2644.59 2729.59 2644.59 2732.59 2644.59 2735.59 2644.59 2738.59 2645.59 2741.59 2645.59 2744.59 2645.59 2747.59 2645.59 2750.59 2645.59 2753.59 2646.59 2756.59 2646.59 2760.59 2646.59 2763.59 2646.59 2766.59 2646.59 2769.59 2646.59 2772.59 2647.59 2775.59 2647.59 2778.59 2647.59 2781.59 2647.59 2784.59 2647.59 2787.59 2648.59 2791.59 2648.59 2794.59 2648.59 2797.59 2648.59 2800.59 2648.59 2803.59 2648.59 2806.59 2649.59 2809.59 2649.59 2812.59 2649.59 2815.59 2649.59 2818.59 2649.59 2822.59 2649.59 2825.59 2650.59 2828.59 2650.59 2831.59 2650.59 2834.5 2650.5" stroke="#5B9BD5" stroke-width="6.875" stroke-linecap="round" stroke-linejoin="round" stroke-miterlimit="10" stroke-dasharray="0 13.75" fill="none"/></g><g><text fill="#595959" font-family="Calibri,Calibri_MSFontService,sans-serif" font-weight="400" font-size="83" transform="matrix(1 0 0 1 2268.96 2170)">y = 100e</text></g><g><text fill="#595959" font-family="Calibri,Calibri_MSFontService,sans-serif" font-weight="400" font-size="55" transform="matrix(1 0 0 1 2551.21 2145)">-</text></g><g><text fill="#595959" font-family="Calibri,Calibri_MSFontService,sans-serif" font-weight="400" font-size="55" transform="matrix(1 0 0 1 2568.05 2145)">0.084x</text></g><g><text fill="#595959" font-family="Calibri,Calibri_MSFontService,sans-serif" font-weight="400" font-size="83" transform="matrix(1 0 0 1 2302.68 2270)">R² = 0.9845</text></g><g><text fill="#595959" font-family="Calibri,Calibri_MSFontService,sans-serif" font-weight="400" font-size="41" transform="matrix(1 0 0 1 1053 2686)">0</text></g><g><text fill="#595959" font-family="Calibri,Calibri_MSFontService,sans-serif" font-weight="400" font-size="41" transform="matrix(1 0 0 1 1032.1 2481)">20</text></g><g><text fill="#595959" font-family="Calibri,Calibri_MSFontService,sans-serif" font-weight="400" font-size="41" transform="matrix(1 0 0 1 1032.1 2276)">40</text></g><g><text fill="#595959" font-family="Calibri,Calibri_MSFontService,sans-serif" font-weight="400" font-size="41" transform="matrix(1 0 0 1 1032.1 2071)">60</text></g><g><text fill="#595959" font-family="Calibri,Calibri_MSFontService,sans-serif" font-weight="400" font-size="41" transform="matrix(1 0 0 1 1032.1 1865)">80</text></g><g><text fill="#595959" font-family="Calibri,Calibri_MSFontService,sans-serif" font-weight="400" font-size="41" transform="matrix(1 0 0 1 1011.2 1660)">100</text></g><g><text fill="#595959" font-family="Calibri,Calibri_MSFontService,sans-serif" font-weight="400" font-size="41" transform="matrix(1 0 0 1 1011.2 1455)">120</text></g><g><text fill="#595959" font-family="Calibri,Calibri_MSFontService,sans-serif" font-weight="400" font-size="41" transform="matrix(1 0 0 1 1101.71 2740)">0</text></g><g><text fill="#595959" font-family="Calibri,Calibri_MSFontService,sans-serif" font-weight="400" font-size="41" transform="matrix(1 0 0 1 1293.08 2740)">5</text></g><g><text fill="#595959" font-family="Calibri,Calibri_MSFontService,sans-serif" font-weight="400" font-size="41" transform="matrix(1 0 0 1 1474.01 2740)">10</text></g><g><text fill="#595959" font-family="Calibri,Calibri_MSFontService,sans-serif" font-weight="400" font-size="41" transform="matrix(1 0 0 1 1665.38 2740)">15</text></g><g><text fill="#595959" font-family="Calibri,Calibri_MSFontService,sans-serif" font-weight="400" font-size="41" transform="matrix(1 0 0 1 1856.75 2740)">20</text></g><g><text fill="#595959" font-family="Calibri,Calibri_MSFontService,sans-serif" font-weight="400" font-size="41" transform="matrix(1 0 0 1 2048.12 2740)">25</text></g><g><text fill="#595959" font-family="Calibri,Calibri_MSFontService,sans-serif" font-weight="400" font-size="41" transform="matrix(1 0 0 1 2239.49 2740)">30</text></g><g><text fill="#595959" font-family="Calibri,Calibri_MSFontService,sans-serif" font-weight="400" font-size="41" transform="matrix(1 0 0 1 2430.86 2740)">35</text></g><g><text fill="#595959" font-family="Calibri,Calibri_MSFontService,sans-serif" font-weight="400" font-size="41" transform="matrix(1 0 0 1 2622.23 2740)">40</text></g><g><text fill="#595959" font-family="Calibri,Calibri_MSFontService,sans-serif" font-weight="400" font-size="41" transform="matrix(1 0 0 1 2813.6 2740)">45</text></g><g><text fill="#595959" font-family="Calibri,Calibri_MSFontService,sans-serif" font-weight="400" font-size="41" transform="matrix(1 0 0 1 3004.97 2740)">50</text></g><g><text fill="#595959" font-family="Calibri,Calibri_MSFontService,sans-serif" font-weight="700" font-size="64" transform="matrix(1 0 0 1 1890.61 1369)">Adsorption</text></g><rect x="981.5" y="1274.5" width="2116" height="1507" stroke="#D9D9D9" stroke-width="3.4375" stroke-linejoin="round" stroke-miterlimit="10" fill="none"/></g></svg>